 <svg width="152" height="40" viewBox="0 0 152 30" fill="none" xmlns="http://www.w3.org/2000/svg">
        <g clip-path="url(#clip0_462_1033)">
            <path opacity="0.997" fill-rule="evenodd" clip-rule="evenodd" d="M19.8671 6.13694C19.8331 6.22042 19.7667 6.25362 19.668 6.23653C15.7313 5.74671 13.0591 7.34007 11.6514 11.0166C11.349 12.1591 11.3324 13.3044 11.6016 14.4523C11.5849 14.6017 11.502 14.6846 11.3526 14.7013C7.84037 14.0439 5.93165 11.936 5.62646 8.37761C5.65696 6.62441 6.28766 5.13064 7.51858 3.89628C11.3018 2.51465 14.9201 2.8466 18.3734 4.89213C18.9193 5.25606 19.4172 5.671 19.8671 6.13694Z" fill="#003366"/>
            <path opacity="0.998" fill-rule="evenodd" clip-rule="evenodd" d="M6.5227 12.5104C6.51543 12.6624 6.58182 12.762 6.72187 12.8091C8.07171 14.1812 9.69827 15.0277 11.6015 15.3486C9.75501 18.7661 6.96663 19.8947 3.23639 18.7344C1.85478 18.1038 0.809136 17.1246 0.0994618 15.7967C-0.0668969 10.8752 1.92481 7.12417 6.07457 4.54358C6.14352 4.59589 6.19331 4.66227 6.22394 4.74275C4.68485 7.39941 4.78443 9.98862 6.5227 12.5104Z" fill="#003366"/>
            <path opacity="0.012" fill-rule="evenodd" clip-rule="evenodd" d="M19.8671 6.1369C20.0051 6.2168 19.9884 6.28318 19.8173 6.33607C19.7412 6.32911 19.6914 6.29591 19.668 6.23649C19.7668 6.25358 19.8331 6.22037 19.8671 6.1369Z" fill="#003366"/>
            <path opacity="0.997" fill-rule="evenodd" clip-rule="evenodd" d="M20.7633 7.13275C20.7953 7.28692 20.8949 7.35331 21.0621 7.33192C23.713 10.6778 24.4599 14.4288 23.3028 18.585C23.1606 19.0453 22.9615 19.4768 22.7052 19.8796C22.2022 16.589 20.3599 14.4811 17.1783 13.556C15.3876 13.2343 13.7279 13.5496 12.199 14.502C11.4276 11.265 12.5231 8.82517 15.4853 7.18254C17.2417 6.47217 19.0011 6.45558 20.7633 7.13275Z" fill="#003366"/>
            <path opacity="0.494" fill-rule="evenodd" clip-rule="evenodd" d="M20.7637 7.13275C20.8842 7.17578 20.9838 7.24217 21.0624 7.33192C20.8952 7.35331 20.7956 7.28692 20.7637 7.13275Z" fill="#003366"/>
            <path opacity="0.165" fill-rule="evenodd" clip-rule="evenodd" d="M6.523 12.5104C6.66305 12.5575 6.72944 12.6571 6.72217 12.8091C6.58212 12.762 6.51573 12.6624 6.523 12.5104Z" fill="#003366"/>
            <path opacity="0.997" fill-rule="evenodd" clip-rule="evenodd" d="M14.3902 26.5518C13.9372 26.5642 13.5057 26.6306 13.0956 26.751C12.2326 26.8944 11.3695 26.8779 10.5063 26.7012C11.2233 26.3599 11.8872 25.9451 12.498 25.4564C12.6501 25.4637 12.7497 25.3973 12.7968 25.2572C14.8391 23.1175 15.4034 20.6278 14.4898 17.7884C14.5112 17.6212 14.4447 17.5216 14.2906 17.4896C13.8884 16.5713 13.3074 15.7746 12.5478 15.0996C12.4733 14.9865 12.4898 14.8869 12.5976 14.8008C15.194 13.4907 17.6505 13.7065 19.9669 15.4481C21.6795 17.067 22.36 19.0421 22.0084 21.3734C20.1322 24.0788 17.5928 25.805 14.3902 26.5518Z" fill="#003366"/>
            <path opacity="0.998" fill-rule="evenodd" clip-rule="evenodd" d="M14.1911 21.7718C14.0493 21.9725 13.983 22.2048 13.9919 22.4689C13.2098 24.5288 11.7492 25.84 9.61018 26.4025C8.88163 26.4591 8.18453 26.3262 7.5189 26.0042C6.38789 25.5392 5.35884 24.9251 4.43176 24.1618C4.36537 23.8963 4.1994 23.7303 3.93384 23.6639C2.23361 22.1951 1.10498 20.3694 0.547944 18.1867C0.50068 17.9296 0.567071 17.7304 0.747115 17.5892C2.8365 19.5972 5.25973 20.178 8.01682 19.332C8.65799 19.0945 9.2555 18.7791 9.80935 18.3859C10.0333 18.3282 10.1992 18.1954 10.3073 17.9876C10.9949 17.2435 11.5593 16.4135 12.0002 15.4979C12.0502 15.3963 12.1165 15.3796 12.1994 15.4482C14.098 17.1769 14.7619 19.2847 14.1911 21.7718Z" fill="#003366"/>
            <path opacity="0.814" fill-rule="evenodd" clip-rule="evenodd" d="M0.747082 17.5892C0.567038 17.7304 0.500647 17.9296 0.547911 18.1867C0.373325 17.9092 0.34013 17.6104 0.448326 17.2905C0.583257 17.359 0.682842 17.4586 0.747082 17.5892Z" fill="#003366"/>
            <path opacity="0.412" fill-rule="evenodd" clip-rule="evenodd" d="M14.2905 17.4896C14.4447 17.5216 14.5111 17.6212 14.4897 17.7884C14.4 17.7097 14.3335 17.6101 14.2905 17.4896Z" fill="#003366"/>
            <path opacity="0.271" fill-rule="evenodd" clip-rule="evenodd" d="M10.307 17.9875C10.199 18.1954 10.033 18.3281 9.80908 18.3859C9.91709 18.1781 10.083 18.0453 10.307 17.9875Z" fill="#003366"/>
            <path opacity="0.204" fill-rule="evenodd" clip-rule="evenodd" d="M14.1907 21.7718C14.1997 22.0359 14.1333 22.2682 13.9915 22.4689C13.9826 22.2048 14.0489 21.9725 14.1907 21.7718Z" fill="#003366"/>
            <path opacity="0.71" fill-rule="evenodd" clip-rule="evenodd" d="M3.93359 23.6639C4.19916 23.7303 4.36513 23.8962 4.43152 24.1618C4.23235 24.0291 4.06637 23.863 3.93359 23.6639Z" fill="#003366"/>
            <path opacity="0.263" fill-rule="evenodd" clip-rule="evenodd" d="M12.7968 25.2573C12.7497 25.3973 12.6501 25.4637 12.498 25.4564C12.5452 25.3164 12.6447 25.25 12.7968 25.2573Z" fill="#003366"/>
            <path opacity="0.063" fill-rule="evenodd" clip-rule="evenodd" d="M14.3902 26.5519C13.9896 26.674 13.5747 26.7736 13.1454 26.8506C13.1057 26.8279 13.0891 26.7947 13.0956 26.7511C13.5057 26.6307 13.9372 26.5642 14.3902 26.5519Z" fill="#003366"/>
        </g>
        <path d="M40.28 25.45C37.86 25.45 36.01 24.62 34.73 22.96C33.45 21.28 32.81 18.71 32.81 15.25V13.27C32.81 9.97 33.46 7.44 34.76 5.68C36.08 3.92 37.95 3.04 40.37 3.04C42.45 3.04 44.02 3.68 45.08 4.96C46.16 6.22 46.78 8.12 46.94 10.66L43.1 11.38C43.1 10.46 43.03 9.68 42.89 9.04C42.77 8.4 42.59 7.88 42.35 7.48C42.13 7.08 41.86 6.8 41.54 6.64C41.22 6.46 40.87 6.37 40.49 6.37C39.57 6.37 38.83 6.91 38.27 7.99C37.71 9.07 37.43 10.8 37.43 13.18V15.67C37.43 17.85 37.72 19.48 38.3 20.56C38.88 21.62 39.62 22.15 40.52 22.15C41.42 22.15 42.08 21.76 42.5 20.98C42.92 20.2 43.16 18.91 43.22 17.11L47 17.68C46.82 20.16 46.18 22.08 45.08 23.44C43.98 24.78 42.38 25.45 40.28 25.45ZM52.1873 17.38H55.8773L54.7973 12.01L54.1673 8.29H54.0173L53.3273 12.01L52.1873 17.38ZM56.5673 20.8H51.4373L50.5373 25H46.7273L51.8573 3.46H56.7773L61.8173 25H57.4073L56.5673 20.8ZM66.6189 17.38H70.3089L69.2289 12.01L68.5989 8.29H68.4489L67.7589 12.01L66.6189 17.38ZM70.9989 20.8H65.8689L64.9689 25H61.1589L66.2889 3.46H71.2089L76.2489 25H71.8389L70.9989 20.8ZM77.0305 3.52H81.6505L85.6105 13.9L86.6905 16.87H86.7505L86.6905 13.9V3.52H90.5005V25H86.2105L81.9505 14.08L80.8705 11.11H80.7805L80.8405 14.08V25H77.0305V3.52ZM95.6625 6.88H91.3725V3.52H104.363V6.88H100.072V25H95.6625V6.88ZM105.249 3.52H109.569V25H105.249V3.52ZM111.77 3.52H116.39L120.35 13.9L121.43 16.87H121.49L121.43 13.9V3.52H125.24V25H120.95L116.69 14.08L115.61 11.11H115.52L115.58 14.08V25H111.77V3.52ZM134.456 17.44H138.176L137.936 12.01L137.846 8.35H137.726L136.436 12.01L134.456 17.44ZM138.356 20.83H133.226L131.696 25H127.736L136.256 3.46H141.176L142.826 25H138.536L138.356 20.83ZM146.912 3.52H151.202L147.812 25H143.522L146.912 3.52Z" fill="#003366"/>
        <defs>
            <clipPath id="clip0_462_1033">
                <rect width="24" height="24" fill="white" transform="translate(0 3)"/>
            </clipPath>
        </defs>
    </svg>

